v 1.0 -1.0 -1.0
v 1.0 -1.0 1.0
v -1.0 -1.0 1.0
v -1.0 -1.0 -1.0
v 1.0 1.0 -1.0
v 1.0 1.0 1.0
v -1.0 1.0 1.0
v -1.0 1.0 -1.0
vt 0.0 -1.0
vt 0.0 2.0
vt 1.0 2.0
vt 1.0 -1.0
vn 0.0 0.0 -1.0
vn -1.0 0.0 0.0
vn 0.0 0.0 1.0
vn 1.0 0.0 0.0
vn 0.0 1.0 0.0
vn 0.0 -1.0 0.0
f 5/1/1 1/2/1 4/3/1
f 5/1/1 4/3/1 8/4/1
f 3/3/2 7/4/2 8/1/2
f 3/3/2 8/1/2 4/2/2
f 2/3/3 6/4/3 7/1/3
f 2/3/3 7/1/3 3/2/3
f 1/3/4 5/4/4 6/1/4
f 1/3/4 6/1/4 2/2/4
f 5/4/5 8/1/5 7/2/5
f 5/4/5 7/2/5 6/3/5
f 1/1/6 2/2/6 3/3/6
f 1/1/6 3/3/6 4/4/6
